<?xml version="1.0" encoding="UTF-8"?>
<!DOCTYPE svg PUBLIC "-//W3C//DTD SVG 1.1//EN" "http://www.w3.org/Graphics/SVG/1.1/DTD/svg11.dtd">
<svg version="1.2" width="433,7" height="69" viewBox="0 0 44000 7000" preserveAspectRatio="xMidYMid" fill-rule="evenodd" stroke-width="28.222" stroke-linejoin="round" xmlns="http://www.w3.org/2000/svg" xmlns:ooo="http://xml.openoffice.org/svg/export" xmlns:xlink="http://www.w3.org/1999/xlink" xmlns:presentation="http://sun.com/xmlns/staroffice/presentation" xmlns:smil="http://www.w3.org/2001/SMIL20/" xmlns:anim="urn:oasis:names:tc:opendocument:xmlns:animation:1.0" xml:space="preserve">
 <defs class="ClipPathGroup">
  <clipPath id="presentation_clip_path" clipPathUnits="userSpaceOnUse">
   <rect x="0" y="0" width="44000" height="7000"/>
  </clipPath>
  <clipPath id="presentation_clip_path_shrink" clipPathUnits="userSpaceOnUse">
   <rect x="44" y="7" width="43912" height="6986"/>
  </clipPath>
 </defs>
 <defs class="TextShapeIndex">
  <g ooo:slide="id1" ooo:id-list="id3 id4 id5 id6"/>
 </defs>
 <defs class="EmbeddedBulletChars">
  <g id="bullet-char-template(57356)" transform="scale(0.00048828125,-0.00048828125)">
   <path d="M 580,1141 L 1163,571 580,0 -4,571 580,1141 Z"/>
  </g>
  <g id="bullet-char-template(57354)" transform="scale(0.00048828125,-0.00048828125)">
   <path d="M 8,1128 L 1137,1128 1137,0 8,0 8,1128 Z"/>
  </g>
  <g id="bullet-char-template(10146)" transform="scale(0.00048828125,-0.00048828125)">
   <path d="M 174,0 L 602,739 174,1481 1456,739 174,0 Z M 1358,739 L 309,1346 659,739 1358,739 Z"/>
  </g>
  <g id="bullet-char-template(10132)" transform="scale(0.00048828125,-0.00048828125)">
   <path d="M 2015,739 L 1276,0 717,0 1260,543 174,543 174,936 1260,936 717,1481 1274,1481 2015,739 Z"/>
  </g>
  <g id="bullet-char-template(10007)" transform="scale(0.00048828125,-0.00048828125)">
   <path d="M 0,-2 C -7,14 -16,27 -25,37 L 356,567 C 262,823 215,952 215,954 215,979 228,992 255,992 264,992 276,990 289,987 310,991 331,999 354,1012 L 381,999 492,748 772,1049 836,1024 860,1049 C 881,1039 901,1025 922,1006 886,937 835,863 770,784 769,783 710,716 594,584 L 774,223 C 774,196 753,168 711,139 L 727,119 C 717,90 699,76 672,76 641,76 570,178 457,381 L 164,-76 C 142,-110 111,-127 72,-127 30,-127 9,-110 8,-76 1,-67 -2,-52 -2,-32 -2,-23 -1,-13 0,-2 Z"/>
  </g>
  <g id="bullet-char-template(10004)" transform="scale(0.00048828125,-0.00048828125)">
   <path d="M 285,-33 C 182,-33 111,30 74,156 52,228 41,333 41,471 41,549 55,616 82,672 116,743 169,778 240,778 293,778 328,747 346,684 L 369,508 C 377,444 397,411 428,410 L 1163,1116 C 1174,1127 1196,1133 1229,1133 1271,1133 1292,1118 1292,1087 L 1292,965 C 1292,929 1282,901 1262,881 L 442,47 C 390,-6 338,-33 285,-33 Z"/>
  </g>
  <g id="bullet-char-template(9679)" transform="scale(0.00048828125,-0.00048828125)">
   <path d="M 813,0 C 632,0 489,54 383,161 276,268 223,411 223,592 223,773 276,916 383,1023 489,1130 632,1184 813,1184 992,1184 1136,1130 1245,1023 1353,916 1407,772 1407,592 1407,412 1353,268 1245,161 1136,54 992,0 813,0 Z"/>
  </g>
  <g id="bullet-char-template(8226)" transform="scale(0.00048828125,-0.00048828125)">
   <path d="M 346,457 C 273,457 209,483 155,535 101,586 74,649 74,723 74,796 101,859 155,911 209,963 273,989 346,989 419,989 480,963 531,910 582,859 608,796 608,723 608,648 583,586 532,535 482,483 420,457 346,457 Z"/>
  </g>
  <g id="bullet-char-template(8211)" transform="scale(0.00048828125,-0.00048828125)">
   <path d="M -4,459 L 1135,459 1135,606 -4,606 -4,459 Z"/>
  </g>
  <g id="bullet-char-template(61548)" transform="scale(0.00048828125,-0.00048828125)">
   <path d="M 173,740 C 173,903 231,1043 346,1159 462,1274 601,1332 765,1332 928,1332 1067,1274 1183,1159 1299,1043 1357,903 1357,740 1357,577 1299,437 1183,322 1067,206 928,148 765,148 601,148 462,206 346,322 231,437 173,577 173,740 Z"/>
  </g>
 </defs>
 <defs class="TextEmbeddedBitmaps"/>
 <g>
  <g id="id2" class="Master_Slide">
   <g id="bg-id2" class="Background"/>
   <g id="bo-id2" class="BackgroundObjects"/>
  </g>
 </g>
 <g class="SlideGroup">
  <g>
   <g id="container-id1">
    <g id="id1" class="Slide" clip-path="url(#presentation_clip_path)">
     <g class="Page">
      <g class="com.sun.star.drawing.PolyPolygonShape">
       <g id="id3">
        <rect class="BoundingBox" stroke="none" fill="none" x="0" y="0" width="6458" height="3530"/>
       </g>
      </g>
      <g class="com.sun.star.drawing.PolyPolygonShape">
       <g id="id4">
        <rect class="BoundingBox" stroke="none" fill="none" x="2218" y="1590" width="3261" height="3821"/>
        <g>
         <defs>
          <linearGradient id="gradient1" x1="3848" y1="1590" x2="3848" y2="5410" gradientUnits="userSpaceOnUse">
           <stop offset="0" style="stop-color:rgb(10,85,140)"/>
           <stop offset="1" style="stop-color:rgb(50,180,200)"/>
          </linearGradient>
         </defs>
         <path style="fill:url(#gradient1)" d="M 5478,4969 L 4885,4381 5478,3794 5033,3353 4441,3940 3848,3353 3403,3794 3996,4381 3403,4969 3848,5408 4441,4822 5033,5410 5478,4969 Z M 2663,2178 L 2218,2619 3255,3647 3700,3206 2663,2178 Z M 3848,2178 L 3403,2619 3848,3060 4293,2619 3848,2178 Z M 3700,2031 L 3255,2471 2811,2031 3255,1590 3700,2031 Z"/>
        </g>
       </g>
      </g>
      <g class="com.sun.star.drawing.ClosedBezierShape">
       <g id="id5">
        <rect class="BoundingBox" stroke="none" fill="none" x="6800" y="2159" width="7051" height="2852"/>
        <path fill="rgb(0,0,0)" stroke="none" d="M 12791,4524 C 13153,4524 13290,4392 13290,4144 13290,3911 13158,3759 12791,3759 L 12378,3759 12378,4524 12791,4524 Z M 12730,3318 C 13044,3318 13151,3186 13151,2973 13151,2773 13044,2641 12725,2641 L 12378,2641 12378,3318 12730,3318 Z M 11838,2201 L 12793,2201 C 13452,2201 13706,2494 13706,2928 13706,3237 13554,3424 13313,3505 13592,3571 13850,3789 13850,4179 13850,4762 13439,4964 12806,4964 L 11838,4964 11838,2201 Z M 9856,4351 C 9856,4351 9856,4349 9851,4346 9846,4339 9838,4329 9833,4321 9808,4291 9767,4237 9727,4177 L 9392,4511 C 9509,4726 9775,5010 10378,5010 10956,5010 11372,4698 11372,4164 11372,3812 11192,3558 10698,3404 L 10345,3297 C 10143,3232 10061,3130 10061,2966 10061,2765 10198,2619 10452,2619 10703,2619 10875,2715 10976,2862 10979,2864 11002,2900 11002,2900 L 11341,2560 C 11194,2350 10926,2160 10452,2160 9775,2160 9504,2568 9504,2999 9504,3343 9676,3612 10158,3764 L 10505,3870 C 10715,3936 10817,4032 10817,4204 10817,4412 10662,4551 10378,4551 10107,4551 9958,4470 9856,4351 Z M 11341,2560 C 11344,2563 11341,2558 11341,2560 Z M 8447,2201 L 8982,2201 8982,4964 8447,4964 8447,3756 7340,3756 7340,4964 6800,4964 6800,2201 7340,2201 7340,3313 8447,3313 8447,2201 Z"/>
       </g>
      </g>
      <g class="Graphic">
       <g id="id6">
        <rect class="BoundingBox" stroke="none" fill="none" x="20400" y="-660" width="22641" height="8321"/>
        <path fill="rgb(0,0,0)" stroke="none" d="M 41527,4400 C 41490,4364 41439,4337 41378,4337 41321,4337 41294,4364 41294,4396 41294,4425 41312,4446 41351,4454 L 41454,4479 C 41577,4506 41630,4572 41630,4661 41630,4759 41563,4859 41362,4859 41229,4859 41150,4803 41110,4755 L 41204,4657 C 41239,4695 41292,4737 41369,4737 41424,4737 41463,4717 41463,4676 41463,4649 41443,4627 41401,4618 L 41294,4592 C 41186,4565 41132,4502 41132,4412 41132,4323 41198,4213 41385,4213 41507,4213 41577,4259 41618,4304 L 41527,4400 Z M 40854,4472 C 40855,4464 40856,4456 40856,4452 40856,4378 40805,4345 40747,4345 40666,4345 40631,4401 40626,4472 L 40854,4472 Z M 40993,4770 C 40946,4817 40863,4859 40764,4859 40551,4859 40460,4724 40460,4535 40460,4361 40556,4213 40747,4213 40936,4213 41008,4347 41008,4481 41008,4515 41004,4563 40997,4588 L 40625,4588 C 40629,4669 40675,4719 40764,4719 40814,4719 40870,4701 40916,4663 L 40993,4770 Z M 40360,4351 L 40246,4433 C 40219,4388 40183,4358 40126,4358 40030,4358 39994,4433 39994,4535 39994,4638 40030,4714 40126,4714 40183,4714 40221,4683 40246,4638 L 40360,4721 C 40317,4813 40226,4859 40113,4859 39908,4859 39827,4710 39827,4535 39827,4362 39908,4213 40113,4213 40226,4213 40317,4259 40360,4351 Z M 39128,4227 L 39286,4227 39286,4297 C 39319,4251 39378,4213 39477,4213 39616,4213 39688,4299 39688,4458 L 39688,4844 39523,4844 39523,4477 C 39523,4403 39495,4364 39412,4364 39365,4364 39316,4387 39292,4410 L 39292,4844 39128,4844 39128,4227 Z M 38829,4472 C 38831,4464 38832,4456 38832,4452 38832,4378 38781,4345 38723,4345 38641,4345 38606,4401 38602,4472 L 38829,4472 Z M 38969,4770 C 38921,4817 38839,4859 38740,4859 38526,4859 38436,4724 38436,4535 38436,4361 38532,4213 38723,4213 38912,4213 38983,4347 38983,4481 38983,4515 38979,4563 38973,4588 L 38601,4588 C 38605,4669 38651,4719 38740,4719 38790,4719 38846,4701 38892,4663 L 38969,4770 Z M 38125,4227 L 38289,4227 38289,4844 38125,4844 38125,4227 Z M 38205,3918 C 38255,3918 38302,3948 38302,4016 38302,4085 38255,4111 38205,4111 38148,4111 38105,4085 38105,4016 38105,3948 38148,3918 38205,3918 Z M 37996,4351 L 37883,4433 C 37856,4388 37819,4358 37763,4358 37666,4358 37630,4433 37630,4535 37630,4638 37666,4714 37763,4714 37819,4714 37857,4683 37883,4638 L 37996,4721 C 37953,4813 37863,4859 37749,4859 37545,4859 37464,4710 37464,4535 37464,4362 37545,4213 37749,4213 37863,4213 37953,4259 37996,4351 Z M 37212,4150 C 37178,4100 37122,4067 37038,4067 36954,4067 36908,4116 36908,4182 36908,4236 36935,4270 37003,4292 L 37119,4327 C 37283,4378 37342,4462 37342,4579 37342,4756 37204,4859 37013,4859 36812,4859 36724,4763 36686,4691 L 36808,4591 C 36842,4655 36889,4707 37013,4707 37107,4707 37158,4661 37158,4592 37158,4535 37124,4503 37055,4481 L 36940,4446 C 36781,4396 36724,4307 36724,4193 36724,4051 36813,3916 37038,3916 37196,3916 37285,3981 37334,4051 L 37212,4150 Z M 36103,4665 L 36103,4405 C 36082,4387 36044,4364 35987,4364 35886,4364 35853,4435 35853,4534 35853,4633 35884,4707 35987,4707 36043,4707 36080,4688 36103,4665 Z M 36103,3910 L 36267,3910 36267,4844 36112,4844 36112,4794 C 36074,4830 36016,4859 35941,4859 35778,4859 35687,4740 35687,4534 35687,4332 35776,4213 35943,4213 36020,4213 36076,4245 36103,4273 L 36103,3910 Z M 35413,4472 C 35414,4464 35415,4456 35415,4452 35415,4378 35364,4345 35306,4345 35225,4345 35189,4401 35185,4472 L 35413,4472 Z M 35552,4770 C 35505,4817 35422,4859 35323,4859 35110,4859 35019,4724 35019,4535 35019,4361 35115,4213 35306,4213 35495,4213 35567,4347 35567,4481 35567,4515 35563,4563 35556,4588 L 35184,4588 C 35188,4669 35234,4719 35323,4719 35373,4719 35429,4701 35475,4663 L 35552,4770 Z M 34708,4227 L 34872,4227 34872,4844 34708,4844 34708,4227 Z M 34788,3918 C 34838,3918 34885,3948 34885,4016 34885,4085 34838,4111 34788,4111 34731,4111 34688,4085 34688,4016 34688,3948 34731,3918 34788,3918 Z M 34496,3910 L 34496,4644 C 34496,4683 34508,4699 34549,4699 L 34578,4699 34578,4851 34494,4851 C 34369,4851 34332,4771 34332,4668 L 34332,3910 34496,3910 Z M 33767,4407 L 33767,4667 C 33790,4686 33828,4707 33885,4707 33989,4707 34021,4637 34021,4538 34021,4439 33990,4364 33886,4364 33829,4364 33790,4384 33767,4407 Z M 33767,5136 L 33603,5136 33603,4227 33759,4227 33759,4278 C 33797,4242 33856,4213 33932,4213 34096,4213 34189,4332 34189,4538 34189,4740 34098,4859 33931,4859 33852,4859 33795,4828 33767,4799 L 33767,5136 Z M 33034,4407 L 33034,4667 C 33057,4686 33095,4707 33152,4707 33256,4707 33288,4637 33288,4538 33288,4439 33257,4364 33153,4364 33096,4364 33057,4384 33034,4407 Z M 33034,5136 L 32870,5136 32870,4227 33026,4227 33026,4278 C 33064,4242 33123,4213 33199,4213 33363,4213 33456,4332 33456,4538 33456,4740 33365,4859 33198,4859 33119,4859 33063,4828 33034,4799 L 33034,5136 Z M 32230,4491 L 32473,4491 32351,4112 32230,4491 Z M 32516,4637 L 32185,4637 32119,4844 31929,4844 32248,3929 32453,3929 32773,4844 32583,4844 32516,4637 Z M 31641,4050 L 31564,4050 C 31510,4050 31494,4082 31494,4136 L 31494,4227 31654,4227 31654,4366 31494,4366 31494,4844 31330,4844 31330,4366 31233,4366 31233,4240 31330,4227 31330,4135 C 31330,3989 31403,3910 31555,3910 L 31641,3910 31641,4050 Z M 30846,4361 C 30763,4361 30723,4420 30723,4534 30723,4653 30764,4711 30848,4711 30933,4711 30972,4649 30972,4537 30972,4420 30933,4361 30846,4361 Z M 30845,4859 C 30652,4859 30557,4721 30557,4537 30557,4349 30648,4213 30850,4213 31045,4213 31140,4349 31140,4534 31140,4724 31048,4859 30845,4859 Z M 29902,4629 L 30040,4227 30216,4227 29855,5136 29689,5136 29821,4817 29569,4227 29752,4227 29902,4629 Z M 29358,4641 C 29358,4687 29382,4707 29425,4707 29447,4707 29475,4703 29498,4697 L 29501,4839 C 29470,4851 29416,4859 29370,4859 29243,4859 29194,4776 29194,4664 L 29194,4365 29082,4365 29082,4240 29194,4227 29194,4077 29358,4051 29358,4227 29496,4227 29496,4365 29358,4365 29358,4641 Z M 28795,4227 L 28959,4227 28959,4844 28795,4844 28795,4227 Z M 28875,3918 C 28925,3918 28972,3948 28972,4016 28972,4085 28925,4111 28875,4111 28818,4111 28775,4085 28775,4016 28775,3948 28818,3918 28875,3918 Z M 28552,4400 C 28515,4364 28464,4337 28403,4337 28346,4337 28319,4364 28319,4396 28319,4425 28337,4446 28376,4454 L 28479,4479 C 28602,4506 28655,4572 28655,4661 28655,4759 28588,4859 28387,4859 28254,4859 28174,4803 28135,4755 L 28229,4657 C 28264,4695 28317,4737 28394,4737 28449,4737 28488,4717 28488,4676 28488,4649 28468,4627 28426,4618 L 28319,4592 C 28211,4565 28157,4502 28157,4412 28157,4323 28223,4213 28410,4213 28531,4213 28602,4259 28642,4304 L 28552,4400 Z M 27827,4324 C 27858,4269 27905,4213 27992,4213 28018,4213 28042,4216 28062,4222 L 28050,4395 C 28022,4388 27981,4382 27951,4382 27897,4382 27855,4412 27832,4456 L 27832,4844 27669,4844 27669,4227 27826,4227 27826,4324 27827,4324 Z M 27370,4472 C 27371,4464 27373,4456 27373,4452 27373,4378 27321,4345 27263,4345 27182,4345 27147,4401 27143,4472 L 27370,4472 Z M 27509,4770 C 27462,4817 27379,4859 27281,4859 27067,4859 26976,4724 26976,4535 26976,4361 27072,4213 27263,4213 27452,4213 27524,4347 27524,4481 27524,4515 27520,4563 27513,4588 L 27141,4588 C 27145,4669 27192,4719 27281,4719 27331,4719 27386,4701 27432,4663 L 27509,4770 Z M 26909,4227 L 26687,4844 26490,4844 26264,4227 26441,4227 26588,4684 26733,4227 26909,4227 Z M 25988,4227 L 26152,4227 26152,4844 25988,4844 25988,4227 Z M 26068,3918 C 26118,3918 26165,3948 26165,4016 26165,4085 26118,4111 26068,4111 26011,4111 25968,4085 25968,4016 25968,3948 26011,3918 26068,3918 Z M 25261,4227 L 25419,4227 25419,4297 C 25451,4251 25511,4213 25610,4213 25749,4213 25820,4299 25820,4458 L 25820,4844 25655,4844 25655,4477 C 25655,4403 25627,4364 25545,4364 25497,4364 25448,4387 25424,4410 L 25424,4844 25261,4844 25261,4227 Z M 24382,3929 L 24560,3929 24560,4491 C 24560,4637 24613,4706 24735,4706 24856,4706 24909,4637 24909,4491 L 24909,3929 25088,3929 25088,4495 C 25088,4751 24943,4858 24735,4858 24526,4858 24382,4749 24382,4495 L 24382,3929 Z M 23691,4629 L 23829,4227 24004,4227 23643,5136 23477,5136 23610,4817 23357,4227 23541,4227 23691,4629 Z M 23146,4641 C 23146,4687 23170,4707 23213,4707 23235,4707 23264,4703 23286,4697 L 23289,4839 C 23258,4851 23204,4859 23158,4859 23031,4859 22982,4776 22982,4664 L 22982,4365 22870,4365 22870,4240 22982,4227 22982,4077 23146,4051 23146,4227 23284,4227 23284,4365 23146,4365 23146,4641 Z M 22583,4227 L 22747,4227 22747,4844 22583,4844 22583,4227 Z M 22663,3918 C 22713,3918 22760,3948 22760,4016 22760,4085 22713,4111 22663,4111 22606,4111 22563,4085 22563,4016 22563,3948 22606,3918 22663,3918 Z M 22316,4598 L 22451,4683 C 22393,4787 22291,4858 22137,4858 21871,4858 21738,4682 21738,4387 21738,4090 21871,3916 22137,3916 22291,3916 22393,3986 22451,4090 L 22316,4175 C 22283,4117 22224,4067 22144,4067 21991,4067 21922,4186 21922,4388 21922,4587 21991,4706 22144,4706 22224,4706 22283,4656 22316,4598 Z M 32565,2603 L 32723,2603 32723,2674 C 32756,2628 32815,2590 32914,2590 33053,2590 33125,2675 33125,2835 L 33125,3220 32960,3220 32960,2854 C 32960,2779 32931,2740 32849,2740 32802,2740 32753,2763 32729,2786 L 32729,3220 32565,3220 32565,2603 Z M 32266,2848 C 32267,2840 32269,2832 32269,2828 32269,2755 32218,2721 32159,2721 32078,2721 32043,2778 32039,2848 L 32266,2848 Z M 32405,3146 C 32358,3193 32276,3235 32177,3235 31963,3235 31873,3100 31873,2912 31873,2737 31969,2590 32159,2590 32349,2590 32420,2724 32420,2858 32420,2892 32416,2939 32409,2965 L 32038,2965 C 32042,3046 32088,3096 32177,3096 32227,3096 32282,3077 32328,3039 L 32405,3146 Z M 30779,2603 L 30937,2603 30937,2674 C 30971,2633 31024,2590 31110,2590 31209,2590 31260,2628 31298,2681 31332,2637 31404,2590 31512,2590 31667,2590 31732,2671 31732,2821 L 31732,3220 31567,3220 31567,2835 C 31567,2775 31540,2740 31464,2740 31409,2740 31366,2762 31340,2786 L 31340,3220 31176,3220 31176,2800 C 31156,2766 31121,2740 31063,2740 31011,2740 30974,2762 30942,2786 L 30942,3220 30779,3220 30779,2603 Z M 30480,2848 C 30481,2840 30483,2832 30483,2828 30483,2755 30431,2721 30373,2721 30292,2721 30257,2778 30253,2848 L 30480,2848 Z M 30619,3146 C 30572,3193 30489,3235 30391,3235 30177,3235 30086,3100 30086,2912 30086,2737 30182,2590 30373,2590 30562,2590 30634,2724 30634,2858 30634,2892 30630,2939 30623,2965 L 30251,2965 C 30255,3046 30301,3096 30391,3096 30441,3096 30496,3077 30542,3039 L 30619,3146 Z M 29773,2701 C 29804,2645 29851,2590 29938,2590 29963,2590 29988,2592 30008,2598 L 29996,2771 C 29967,2764 29927,2759 29897,2759 29843,2759 29801,2789 29778,2832 L 29778,3220 29614,3220 29614,2603 29771,2603 29771,2701 29773,2701 Z M 29118,3074 C 29239,3074 29283,3031 29283,2948 29283,2871 29240,2821 29118,2821 L 28982,2821 28982,3074 29118,3074 Z M 29098,2675 C 29202,2675 29237,2632 29237,2561 29237,2495 29202,2452 29097,2452 L 28982,2452 28982,2675 29098,2675 Z M 28803,2306 L 29120,2306 C 29337,2306 29421,2403 29421,2547 29421,2648 29371,2710 29291,2737 29383,2759 29469,2831 29469,2961 29469,3153 29333,3220 29124,3220 L 28803,3220 28803,2306 Z M 28199,2848 C 28200,2840 28202,2832 28202,2828 28202,2755 28150,2721 28092,2721 28011,2721 27976,2778 27972,2848 L 28199,2848 Z M 28338,3146 C 28291,3193 28208,3235 28110,3235 27896,3235 27805,3100 27805,2912 27805,2737 27901,2590 28092,2590 28281,2590 28353,2724 28353,2858 28353,2892 28349,2939 28342,2965 L 27970,2965 C 27974,3046 28020,3096 28110,3096 28160,3096 28215,3077 28261,3039 L 28338,3146 Z M 27621,2287 L 27621,3020 C 27621,3059 27634,3076 27674,3076 L 27704,3076 27704,3227 27620,3227 C 27494,3227 27458,3147 27458,3044 L 27458,2287 27621,2287 Z M 27289,3220 L 27131,3220 27131,3150 C 27098,3196 27039,3234 26940,3234 26801,3234 26729,3149 26729,2989 L 26729,2603 26894,2603 26894,2970 C 26894,3044 26922,3084 27005,3084 27052,3084 27101,3061 27125,3038 L 27125,2603 27289,2603 27289,3220 Z M 26008,2287 L 26172,2287 26172,2661 C 26206,2628 26260,2590 26357,2590 26496,2590 26568,2675 26568,2835 L 26568,3220 26405,3220 26405,2854 C 26405,2779 26375,2740 26292,2740 26245,2740 26196,2763 26172,2786 L 26172,3220 26008,3220 26008,2287 Z M 25881,2728 L 25768,2809 C 25741,2764 25704,2735 25647,2735 25551,2735 25515,2809 25515,2912 25515,3015 25551,3091 25647,3091 25704,3091 25742,3059 25768,3015 L 25881,3097 C 25838,3189 25747,3235 25634,3235 25430,3235 25348,3086 25348,2912 25348,2739 25430,2590 25634,2590 25747,2590 25838,2636 25881,2728 Z M 25134,2777 C 25097,2740 25046,2713 24985,2713 24928,2713 24901,2740 24901,2773 24901,2801 24918,2823 24958,2831 L 25061,2855 C 25184,2882 25236,2948 25236,3038 25236,3135 25170,3235 24969,3235 24836,3235 24756,3180 24717,3131 L 24810,3034 C 24846,3072 24898,3114 24975,3114 25031,3114 25070,3093 25070,3053 25070,3026 25050,3004 25008,2994 L 24901,2969 C 24793,2942 24739,2878 24739,2789 24739,2699 24805,2590 24992,2590 25113,2590 25184,2636 25224,2681 L 25134,2777 Z M 24031,2287 L 24195,2287 24195,2661 C 24229,2628 24283,2590 24380,2590 24520,2590 24591,2675 24591,2835 L 24591,3220 24428,3220 24428,2854 C 24428,2779 24398,2740 24315,2740 24268,2740 24219,2763 24195,2786 L 24195,3220 24031,3220 24031,2287 Z M 23904,2728 L 23791,2809 C 23764,2764 23727,2735 23670,2735 23574,2735 23538,2809 23538,2912 23538,3015 23574,3091 23670,3091 23727,3091 23765,3059 23791,3015 L 23904,3097 C 23861,3189 23771,3235 23657,3235 23453,3235 23372,3086 23372,2912 23372,2739 23453,2590 23657,2590 23771,2590 23861,2636 23904,2728 Z M 22959,2737 C 22875,2737 22836,2797 22836,2911 22836,3030 22877,3088 22961,3088 23046,3088 23085,3026 23085,2913 23085,2797 23046,2737 22959,2737 Z M 22958,3235 C 22765,3235 22670,3097 22670,2913 22670,2725 22760,2590 22963,2590 23158,2590 23253,2725 23253,2911 23253,3100 23161,3235 22958,3235 Z M 22339,2306 L 22516,2306 22516,3220 22339,3220 22339,2820 21953,2820 21953,3220 21775,3220 21775,2306 21953,2306 21953,2674 22339,2674 22339,2306 Z"/>
       </g>
      </g>
     </g>
    </g>
   </g>
  </g>
 </g>
</svg>
